<svg id="Capa_1" data-name="Capa 1" xmlns="http://www.w3.org/2000/svg" viewBox="0 0 296.19 260.79"><defs><style>.cls-1{fill:#046c76;}.cls-2{fill:#05829a;}.cls-3{fill:#034353;}</style></defs><path class="cls-1" d="M222.75,434.35a19,19,0,1,0,0-26.81A19,19,0,0,0,222.75,434.35Z" transform="translate(-149.54 -290.55)"/><path class="cls-1" d="M254.58,425.48c-4.54,18.41,2.08,27.51,18.65,31.59l-20.77,13c3.57-16.69-1.72-26.61-20.27-30.58Z" transform="translate(-149.54 -290.55)"/><path class="cls-2" d="M345.7,434.35a19,19,0,1,0,0-26.81A19,19,0,0,0,345.7,434.35Z" transform="translate(-149.54 -290.55)"/><path class="cls-2" d="M363.08,439.49c-18.54,4-23.84,13.89-20.26,30.58l-20.77-13c16.57-4.08,23.18-13.18,18.65-31.59Z" transform="translate(-149.54 -290.55)"/><path class="cls-1" d="M257.08,485.71a17.06,17.06,0,1,0,0-24.13A17.05,17.05,0,0,0,257.08,485.71Z" transform="translate(-149.54 -290.55)"/><path class="cls-1" d="M314.06,461.58a17.07,17.07,0,1,0,24.14,0A17.07,17.07,0,0,0,314.06,461.58Z" transform="translate(-149.54 -290.55)"/><path class="cls-3" d="M232.66,472.74a24.88,24.88,0,1,0,0,35.19A24.88,24.88,0,0,0,232.66,472.74Z" transform="translate(-149.54 -290.55)"/><path class="cls-3" d="M191,484c5.67-21.6-.87-33-22.71-38.75L199,427.41c-5.8,21.82.89,33.14,22.48,38.88Z" transform="translate(-149.54 -290.55)"/><path class="cls-2" d="M362.61,507.93a24.88,24.88,0,1,0,0-35.19A24.9,24.9,0,0,0,362.61,507.93Z" transform="translate(-149.54 -290.55)"/><path class="cls-2" d="M373.81,466.29c21.58-5.74,28.28-17.06,22.48-38.88L427,445.27C405.13,451,398.6,462.42,404.27,484Z" transform="translate(-149.54 -290.55)"/><circle class="cls-3" cx="174.69" cy="420.95" r="25.15" transform="translate(-199.66 -266.05) rotate(-7.02)"/><circle class="cls-2" cx="420.59" cy="420.95" r="25.15" transform="translate(-189.29 507.46) rotate(-84.35)"/><circle class="cls-1" cx="297.64" cy="526.27" r="25.07" transform="translate(-230 -236.08) rotate(-9.22)"/><circle class="cls-1" cx="297.64" cy="420.95" r="25.15" transform="translate(-213.13 -237.44) rotate(-9.22)"/><path class="cls-1" d="M372.52,407.54a19,19,0,1,0,0,26.81A19,19,0,0,0,372.52,407.54Z" transform="translate(-149.54 -290.55)"/><path class="cls-1" d="M340.7,416.41c4.53-18.41-2.08-27.51-18.65-31.59l20.77-13c-3.58,16.69,1.72,26.61,20.26,30.58Z" transform="translate(-149.54 -290.55)"/><path class="cls-2" d="M249.57,407.54a19,19,0,1,0,0,26.81A19,19,0,0,0,249.57,407.54Z" transform="translate(-149.54 -290.55)"/><path class="cls-2" d="M232.19,402.4c18.55-4,23.84-13.89,20.27-30.58l20.77,13C256.66,388.9,250,398,254.58,416.41Z" transform="translate(-149.54 -290.55)"/><path class="cls-1" d="M338.2,356.18a17.07,17.07,0,1,0,0,24.13A17.06,17.06,0,0,0,338.2,356.18Z" transform="translate(-149.54 -290.55)"/><path class="cls-1" d="M281.21,380.31a17.06,17.06,0,1,0-24.13,0A17.05,17.05,0,0,0,281.21,380.31Z" transform="translate(-149.54 -290.55)"/><path class="cls-3" d="M362.61,369.15a24.88,24.88,0,1,0,0-35.19A24.9,24.9,0,0,0,362.61,369.15Z" transform="translate(-149.54 -290.55)"/><path class="cls-3" d="M404.27,357.87c-5.67,21.6.86,33,22.7,38.75l-30.68,17.86c5.8-21.82-.9-33.14-22.48-38.88Z" transform="translate(-149.54 -290.55)"/><path class="cls-2" d="M232.66,334a24.88,24.88,0,1,0,0,35.19A24.88,24.88,0,0,0,232.66,334Z" transform="translate(-149.54 -290.55)"/><path class="cls-2" d="M221.47,375.6c-21.59,5.74-28.28,17.06-22.48,38.88L168.3,396.62c21.84-5.73,28.38-17.15,22.71-38.75Z" transform="translate(-149.54 -290.55)"/><circle class="cls-3" cx="420.59" cy="420.95" r="25.15" transform="translate(-211.83 478.13) rotate(-80.78)"/><circle class="cls-2" cx="174.69" cy="420.95" r="25.15" transform="translate(-190.17 -271.29) rotate(-5.65)"/><circle class="cls-1" cx="148.1" cy="25.07" r="25.07"/><circle class="cls-1" cx="297.64" cy="420.95" r="25.15" transform="translate(-329.97 323.36) rotate(-76.72)"/></svg>