<svg id="Capa_1" data-name="Capa 1" xmlns="http://www.w3.org/2000/svg" viewBox="0 0 473.06 645.05"><defs><style>.cls-1{font-size:123.32px;fill:#12192c;letter-spacing:-0.02em;}.cls-1,.cls-3{font-family:Titillium-Bold, Titillium Bold;font-weight:700;}.cls-2{letter-spacing:0em;}.cls-3{font-size:59.12px;}.cls-3,.cls-8{fill:#034353;}.cls-4{letter-spacing:-0.04em;}.cls-5{letter-spacing:-0.06em;}.cls-6{fill:#046c76;}.cls-7{fill:#05829a;}</style></defs><text class="cls-1" transform="translate(38.6 551.39)">C<tspan class="cls-2" x="68.94" y="0">OMBE</tspan></text><text class="cls-3" transform="translate(21.66 630.27)">RISK AND<tspan class="cls-4" x="234.11" y="0"> </tspan><tspan class="cls-5" x="244.51" y="0">V</tspan><tspan x="274.13" y="0">A</tspan><tspan class="cls-4" x="310.31" y="0">L</tspan><tspan x="336.09" y="0">UE</tspan></text><path class="cls-6" d="M178,328.09a30.29,30.29,0,1,0,0-42.83A30.28,30.28,0,0,0,178,328.09Z" transform="translate(-61.11 -98.42)"/><path class="cls-6" d="M228.86,313.92c-7.24,29.41,3.32,43.94,29.79,50.46l-33.17,20.76c5.71-26.65-2.75-42.51-32.36-48.85Z" transform="translate(-61.11 -98.42)"/><path class="cls-7" d="M374.41,328.09a30.29,30.29,0,1,0,0-42.83A30.28,30.28,0,0,0,374.41,328.09Z" transform="translate(-61.11 -98.42)"/><path class="cls-7" d="M402.16,336.29c-29.61,6.34-38.07,22.2-32.37,48.85l-33.16-20.76c26.46-6.52,37-21.05,29.78-50.46Z" transform="translate(-61.11 -98.42)"/><path class="cls-6" d="M232.86,410.12a27.26,27.26,0,1,0,0-38.55A27.27,27.27,0,0,0,232.86,410.12Z" transform="translate(-61.11 -98.42)"/><path class="cls-6" d="M323.87,371.57a27.26,27.26,0,1,0,38.55,0A27.25,27.25,0,0,0,323.87,371.57Z" transform="translate(-61.11 -98.42)"/><path class="cls-8" d="M193.87,389.41a39.73,39.73,0,1,0,0,56.19A39.73,39.73,0,0,0,193.87,389.41Z" transform="translate(-61.11 -98.42)"/><path class="cls-8" d="M127.34,407.42c9-34.51-1.39-52.74-36.26-61.89l49-28.53c-9.27,34.85,1.42,52.93,35.9,62.1Z" transform="translate(-61.11 -98.42)"/><path class="cls-7" d="M401.41,445.6a39.73,39.73,0,1,0,0-56.19A39.73,39.73,0,0,0,401.41,445.6Z" transform="translate(-61.11 -98.42)"/><path class="cls-7" d="M419.29,379.1c34.47-9.17,45.17-27.25,35.9-62.1l49,28.53c-34.88,9.15-45.32,27.38-36.26,61.89Z" transform="translate(-61.11 -98.42)"/><circle class="cls-8" cx="101.27" cy="306.68" r="40.16" transform="translate(-97.82 -83.75) rotate(-7.02)"/><circle class="cls-7" cx="494" cy="306.68" r="40.16" transform="matrix(0.1, -1, 1, 0.1, 79.03, 669.64)"/><circle class="cls-6" cx="297.64" cy="474.89" r="40.04" transform="translate(-133.34 -44.61) rotate(-9.22)"/><circle class="cls-6" cx="297.64" cy="306.68" r="40.16" transform="translate(-106.39 -46.78) rotate(-9.22)"/><path class="cls-6" d="M417.24,285.26a30.29,30.29,0,1,0,0,42.83A30.3,30.3,0,0,0,417.24,285.26Z" transform="translate(-61.11 -98.42)"/><path class="cls-6" d="M366.41,299.44c7.24-29.41-3.32-43.94-29.78-50.46l33.16-20.76c-5.7,26.65,2.76,42.5,32.37,48.84Z" transform="translate(-61.11 -98.42)"/><path class="cls-7" d="M220.87,285.26a30.29,30.29,0,1,0,0,42.83A30.3,30.3,0,0,0,220.87,285.26Z" transform="translate(-61.11 -98.42)"/><path class="cls-7" d="M193.12,277.06c29.61-6.34,38.07-22.19,32.36-48.84L258.65,249c-26.47,6.52-37,21-29.79,50.46Z" transform="translate(-61.11 -98.42)"/><path class="cls-6" d="M362.42,203.24a27.26,27.26,0,1,0,0,38.55A27.25,27.25,0,0,0,362.42,203.24Z" transform="translate(-61.11 -98.42)"/><path class="cls-6" d="M271.41,241.79a27.26,27.26,0,1,0-38.55,0A27.27,27.27,0,0,0,271.41,241.79Z" transform="translate(-61.11 -98.42)"/><path class="cls-8" d="M401.41,224a39.73,39.73,0,1,0,0-56.19A39.73,39.73,0,0,0,401.41,224Z" transform="translate(-61.11 -98.42)"/><path class="cls-8" d="M467.94,205.94c-9.06,34.51,1.38,52.74,36.26,61.89l-49,28.52c9.27-34.84-1.43-52.93-35.9-62.1Z" transform="translate(-61.11 -98.42)"/><path class="cls-7" d="M193.87,167.76a39.73,39.73,0,1,0,0,56.19A39.73,39.73,0,0,0,193.87,167.76Z" transform="translate(-61.11 -98.42)"/><path class="cls-7" d="M176,234.25c-34.48,9.17-45.17,27.26-35.9,62.1l-49-28.52c34.87-9.15,45.31-27.38,36.26-61.89Z" transform="translate(-61.11 -98.42)"/><circle class="cls-8" cx="494" cy="306.68" r="40.16" transform="translate(51.04 646.76) rotate(-80.78)"/><circle class="cls-7" cx="101.27" cy="306.68" r="40.16" transform="translate(-90.84 -86.95) rotate(-5.65)"/><circle class="cls-6" cx="236.53" cy="40.04" r="40.04"/><circle class="cls-6" cx="297.64" cy="306.68" r="40.16" transform="translate(-130.33 427.47) rotate(-76.72)"/></svg>