<svg id="Capa_1" data-name="Capa 1" xmlns="http://www.w3.org/2000/svg" viewBox="0 0 296.19 403.89"><defs><style>.cls-1{font-size:77.22px;}.cls-1,.cls-3{fill:#12192c;font-family:Titillium-Bold, Titillium Bold;font-weight:700;}.cls-2{letter-spacing:-0.02em;}.cls-3{font-size:37.02px;}.cls-4{letter-spacing:-0.04em;}.cls-5{letter-spacing:-0.06em;}.cls-6{fill:#046c76;}.cls-7{fill:#05829a;}.cls-8{fill:#034353;}</style></defs><text class="cls-1" transform="translate(24.16 345.24)"><tspan class="cls-2">C</tspan><tspan x="43.16" y="0">OMBE</tspan></text><text class="cls-3" transform="translate(13.56 394.63)">RISK AND<tspan class="cls-4" x="146.58" y="0"> </tspan><tspan class="cls-5" x="153.1" y="0">V</tspan><tspan x="171.64" y="0">A</tspan><tspan class="cls-4" x="194.3" y="0">L</tspan><tspan x="210.44" y="0">UE</tspan></text><path class="cls-6" d="M222.75,362.81a19,19,0,1,0,0-26.82A19,19,0,0,0,222.75,362.81Z" transform="translate(-149.54 -219)"/><path class="cls-6" d="M254.58,353.93c-4.54,18.42,2.08,27.52,18.65,31.6l-20.77,13c3.57-16.69-1.72-26.62-20.27-30.59Z" transform="translate(-149.54 -219)"/><path class="cls-7" d="M345.7,362.81a19,19,0,1,0,0-26.82A19,19,0,0,0,345.7,362.81Z" transform="translate(-149.54 -219)"/><path class="cls-7" d="M363.08,367.94c-18.54,4-23.84,13.9-20.26,30.59l-20.77-13c16.57-4.08,23.18-13.18,18.65-31.6Z" transform="translate(-149.54 -219)"/><path class="cls-6" d="M257.08,414.17a17.07,17.07,0,1,0,0-24.14A17.07,17.07,0,0,0,257.08,414.17Z" transform="translate(-149.54 -219)"/><path class="cls-6" d="M314.06,390a17.07,17.07,0,1,0,24.14,0A17.08,17.08,0,0,0,314.06,390Z" transform="translate(-149.54 -219)"/><path class="cls-8" d="M232.66,401.2a24.88,24.88,0,1,0,0,35.18A24.87,24.87,0,0,0,232.66,401.2Z" transform="translate(-149.54 -219)"/><path class="cls-8" d="M191,412.47c5.67-21.6-.87-33-22.71-38.75L199,355.86c-5.8,21.82.89,33.15,22.48,38.89Z" transform="translate(-149.54 -219)"/><path class="cls-7" d="M362.61,436.38a24.88,24.88,0,1,0,0-35.18A24.88,24.88,0,0,0,362.61,436.38Z" transform="translate(-149.54 -219)"/><path class="cls-7" d="M373.81,394.75c21.58-5.74,28.28-17.07,22.48-38.89L427,373.72c-21.84,5.73-28.37,17.15-22.7,38.75Z" transform="translate(-149.54 -219)"/><circle class="cls-8" cx="174.69" cy="349.4" r="25.15" transform="translate(-190.92 -195.04) rotate(-7.02)"/><circle class="cls-7" cx="420.59" cy="349.4" r="25.15" transform="translate(-118.09 514.51) rotate(-84.35)"/><circle class="cls-6" cx="297.64" cy="454.72" r="25.07" transform="translate(-218.54 -165.45) rotate(-9.22)"/><circle class="cls-6" cx="297.64" cy="349.4" r="25.15" transform="translate(-201.66 -166.81) rotate(-9.22)"/><path class="cls-6" d="M372.52,336a19,19,0,1,0,0,26.82A19,19,0,0,0,372.52,336Z" transform="translate(-149.54 -219)"/><path class="cls-6" d="M340.7,344.87c4.53-18.42-2.08-27.52-18.65-31.6l20.77-13c-3.58,16.69,1.72,26.62,20.26,30.59Z" transform="translate(-149.54 -219)"/><path class="cls-7" d="M249.57,336a19,19,0,1,0,0,26.82A19,19,0,0,0,249.57,336Z" transform="translate(-149.54 -219)"/><path class="cls-7" d="M232.19,330.86c18.55-4,23.84-13.9,20.27-30.59l20.77,13c-16.57,4.08-23.19,13.18-18.65,31.6Z" transform="translate(-149.54 -219)"/><path class="cls-6" d="M338.2,284.63a17.07,17.07,0,1,0,0,24.14A17.08,17.08,0,0,0,338.2,284.63Z" transform="translate(-149.54 -219)"/><path class="cls-6" d="M281.21,308.77a17.07,17.07,0,1,0-24.13,0A17.06,17.06,0,0,0,281.21,308.77Z" transform="translate(-149.54 -219)"/><path class="cls-8" d="M362.61,297.6a24.88,24.88,0,1,0,0-35.18A24.88,24.88,0,0,0,362.61,297.6Z" transform="translate(-149.54 -219)"/><path class="cls-8" d="M404.27,286.32c-5.67,21.61.86,33,22.7,38.76l-30.68,17.85c5.8-21.81-.9-33.14-22.48-38.88Z" transform="translate(-149.54 -219)"/><path class="cls-7" d="M232.66,262.42a24.88,24.88,0,1,0,0,35.18A24.87,24.87,0,0,0,232.66,262.42Z" transform="translate(-149.54 -219)"/><path class="cls-7" d="M221.47,304.05c-21.59,5.74-28.28,17.07-22.48,38.88L168.3,325.08c21.84-5.74,28.38-17.15,22.71-38.76Z" transform="translate(-149.54 -219)"/><circle class="cls-8" cx="420.59" cy="349.4" r="25.15" transform="translate(-141.21 489.59) rotate(-80.78)"/><circle class="cls-7" cx="174.69" cy="349.4" r="25.15" transform="translate(-183.12 -200.09) rotate(-5.65)"/><circle class="cls-6" cx="148.1" cy="25.07" r="25.07"/><circle class="cls-6" cx="297.64" cy="349.4" r="25.15" transform="translate(-260.34 339.8) rotate(-76.72)"/></svg>