<svg id="Capa_1" data-name="Capa 1" xmlns="http://www.w3.org/2000/svg" viewBox="0 0 473.06 416.51"><defs><style>.cls-1{fill:#046c76;}.cls-2{fill:#05829a;}.cls-3{fill:#034353;}</style></defs><path class="cls-1" d="M178,442.36a30.29,30.29,0,1,0,0-42.83A30.28,30.28,0,0,0,178,442.36Z" transform="translate(-61.11 -212.69)"/><path class="cls-1" d="M228.86,428.19c-7.24,29.4,3.32,43.94,29.79,50.46l-33.17,20.76c5.71-26.66-2.75-42.51-32.36-48.85Z" transform="translate(-61.11 -212.69)"/><path class="cls-2" d="M374.41,442.36a30.29,30.29,0,1,0,0-42.83A30.28,30.28,0,0,0,374.41,442.36Z" transform="translate(-61.11 -212.69)"/><path class="cls-2" d="M402.16,450.56c-29.61,6.34-38.07,22.19-32.37,48.85l-33.16-20.76c26.46-6.52,37-21.06,29.78-50.46Z" transform="translate(-61.11 -212.69)"/><path class="cls-1" d="M232.86,524.39a27.26,27.26,0,1,0,0-38.55A27.27,27.27,0,0,0,232.86,524.39Z" transform="translate(-61.11 -212.69)"/><path class="cls-1" d="M323.87,485.84a27.26,27.26,0,1,0,38.55,0A27.25,27.25,0,0,0,323.87,485.84Z" transform="translate(-61.11 -212.69)"/><path class="cls-3" d="M193.87,503.67a39.73,39.73,0,1,0,0,56.19A39.74,39.74,0,0,0,193.87,503.67Z" transform="translate(-61.11 -212.69)"/><path class="cls-3" d="M127.34,521.68c9-34.5-1.39-52.73-36.26-61.89l49-28.52c-9.27,34.85,1.42,52.93,35.9,62.1Z" transform="translate(-61.11 -212.69)"/><path class="cls-2" d="M401.41,559.86a39.73,39.73,0,1,0,0-56.19A39.73,39.73,0,0,0,401.41,559.86Z" transform="translate(-61.11 -212.69)"/><path class="cls-2" d="M419.29,493.37c34.47-9.17,45.17-27.25,35.9-62.1l49,28.52c-34.88,9.16-45.32,27.39-36.26,61.89Z" transform="translate(-61.11 -212.69)"/><circle class="cls-3" cx="101.27" cy="420.95" r="40.16" transform="translate(-111.78 -197.16) rotate(-7.02)"/><circle class="cls-2" cx="494" cy="420.95" r="40.16" transform="matrix(0.1, -1, 1, 0.1, -34.68, 658.38)"/><circle class="cls-1" cx="297.64" cy="589.16" r="40.04" transform="translate(-151.64 -157.4) rotate(-9.22)"/><circle class="cls-1" cx="297.64" cy="420.95" r="40.16" transform="translate(-124.7 -159.58) rotate(-9.22)"/><path class="cls-1" d="M417.24,399.53a30.29,30.29,0,1,0,0,42.83A30.28,30.28,0,0,0,417.24,399.53Z" transform="translate(-61.11 -212.69)"/><path class="cls-1" d="M366.41,413.7c7.24-29.4-3.32-43.94-29.78-50.45l33.16-20.77c-5.7,26.66,2.76,42.51,32.37,48.85Z" transform="translate(-61.11 -212.69)"/><path class="cls-2" d="M220.87,399.53a30.29,30.29,0,1,0,0,42.83A30.28,30.28,0,0,0,220.87,399.53Z" transform="translate(-61.11 -212.69)"/><path class="cls-2" d="M193.12,391.33c29.61-6.34,38.07-22.19,32.36-48.85l33.17,20.77c-26.47,6.51-37,21.05-29.79,50.45Z" transform="translate(-61.11 -212.69)"/><path class="cls-1" d="M362.42,317.51a27.26,27.26,0,1,0,0,38.54A27.25,27.25,0,0,0,362.42,317.51Z" transform="translate(-61.11 -212.69)"/><path class="cls-1" d="M271.41,356.05a27.26,27.26,0,1,0-38.55,0A27.26,27.26,0,0,0,271.41,356.05Z" transform="translate(-61.11 -212.69)"/><path class="cls-3" d="M401.41,338.22a39.73,39.73,0,1,0,0-56.19A39.74,39.74,0,0,0,401.41,338.22Z" transform="translate(-61.11 -212.69)"/><path class="cls-3" d="M467.94,320.21c-9.06,34.5,1.38,52.74,36.26,61.89l-49,28.52c9.27-34.85-1.43-52.93-35.9-62.1Z" transform="translate(-61.11 -212.69)"/><path class="cls-2" d="M193.87,282a39.73,39.73,0,1,0,0,56.19A39.73,39.73,0,0,0,193.87,282Z" transform="translate(-61.11 -212.69)"/><path class="cls-2" d="M176,348.52c-34.48,9.17-45.17,27.25-35.9,62.1l-49-28.52c34.87-9.15,45.31-27.39,36.26-61.89Z" transform="translate(-61.11 -212.69)"/><circle class="cls-3" cx="494" cy="420.95" r="40.16" transform="translate(-61.75 628.45) rotate(-80.78)"/><circle class="cls-2" cx="101.27" cy="420.95" r="40.16" transform="translate(-102.1 -200.66) rotate(-5.65)"/><circle class="cls-1" cx="236.53" cy="40.04" r="40.04"/><circle class="cls-1" cx="297.64" cy="420.95" r="40.16" transform="translate(-241.54 401.22) rotate(-76.72)"/></svg>